<svg width="430" height="80" viewBox="0 0 430 80" fill="none" xmlns="http://www.w3.org/2000/svg">
<path d="M165 0.5C238.161 0.5 304.385 4.97615 352.309 12.21C376.274 15.8275 395.642 20.1318 409.007 24.9014C415.692 27.2872 420.846 29.779 424.319 32.3408C427.806 34.9124 429.5 37.4787 429.5 40C429.5 42.5213 427.806 45.0876 424.319 47.6592C420.846 50.221 415.692 52.7128 409.007 55.0986C395.642 59.8682 376.274 64.1725 352.309 67.79C304.385 75.0238 238.161 79.5 165 79.5C91.8393 79.5 25.6154 75.0238 -22.3086 67.79C-46.2745 64.1725 -65.6418 59.8682 -79.0068 55.0986C-85.6923 52.7128 -90.8463 50.221 -94.3193 47.6592C-97.8055 45.0876 -99.5 42.5213 -99.5 40C-99.5 37.4787 -97.8055 34.9124 -94.3193 32.3408C-90.8463 29.779 -85.6923 27.2872 -79.0068 24.9014C-65.6418 20.1318 -46.2745 15.8275 -22.3086 12.21C25.6154 4.97615 91.8393 0.5 165 0.5Z" stroke="white"/>
</svg>
